<svg xmlns="http://www.w3.org/2000/svg" width="1000" height="1000" viewBox="0 0 1000 1000"><path fill="#C9413E" d="M541.007 68.538l87.785 317.888 319.26-82.88-231.407 235.007 231.408 234.955-319.26-82.863L543.358 1000h-4.706L453.17 690.645l-319.19 82.863 231.37-234.955-231.37-235.008 319.19 82.88L541.008 68.54z"/><path fill="#C9413E" d="M415.382 631.65l3.983 77.67.112.056c-7.213 2.525-13.146 8.38-15.412 16.28-3.706 12.926 3.764 26.42 16.706 30.13 12.24 3.51 25-3.03 29.44-14.727l77.28 6.67-65.21 42.23c-2.57-2.22-5.66-3.97-9.16-4.97-12.92-3.71-26.41 3.77-30.12 16.69-3.71 12.93 3.77 26.42 16.7 30.13 3.5 1 7.04 1.15 10.4.63l32.93 70.38-69.28-35.4-.27.13c2.63-12.42-4.71-24.9-17.1-28.45-12.91-3.71-26.41 3.76-30.11 16.68-2.31 8.07-.27 16.34 4.72 22.33l-44.53 63.74-3.98-77.67-.03-.02c7.88-2.21 14.46-8.29 16.88-16.74 3.71-12.92-3.76-26.41-16.7-30.12-12.8-3.67-26.16 3.64-30 16.36l-.74-1.2-77.5-6.69 65.19-42.24c2.62 2.29 5.75 4.09 9.32 5.11 12.92 3.7 26.42-3.78 30.13-16.71 3.71-12.93-3.78-26.42-16.69-30.12-3.57-1.02-7.15-1.17-10.59-.61l.08-.12-32.94-70.44 69.24 35.39c-2.4 12.27 4.92 24.54 17.18 28.05 12.94 3.71 26.42-3.77 30.13-16.7 2.28-7.94.33-16.07-4.5-22.04l44.51-63.73zm-44.88 137.357c-8.012.482-14.08 5.322-16.658 12.856-2.703 9.426 2.744 19.25 12.17 21.954 9.425 2.702 19.256-2.742 21.96-12.168 2.697-9.41-2.75-19.26-12.176-21.96-2.918-.68-1.166-.37-5.295-.69zM352.784 2.977s7.378 8.557 12.976 14.46c5.597 5.893 10.917 11.798 13.85 18.872 2.965 7.06 2.65 12.09 2.65 12.09s-1.458-2.66-4.414-4.73c-2.942-2.06-8.55.3-8.55.3l-1.457.87-33.91 4.73s0 3.54-.31 5.01c-.29 1.48-3.54 4.72-3.54 4.72v3.24c0 2.36.88 9.14 2.65 17.4 1.77 8.25 4.42 20.05 4.42 20.05s1.18.88 2.36 2.65c1.19 1.77 2.06 2.36 3.55 5.9 1.45 3.53 4.42 4.42 7.35 5.6 2.94 1.18 7.08 4.72 7.97 6.78.88 2.07-.89 10.91-.89 10.91l1.47.88c1.47.88 2.65 4.12 2.65 4.12h2.94c1.18 0 3.82 1.76 3.82 1.76l-.28-5-1.18 3.24s-.31-1.78-.31-4.42v-5.61s-.46-.61-1.47-2.66c-.47-.97-1.3-1.76-1.78-3.84-1.46-6.49 2.95-3.83 2.95-3.83s-3.53-6.48-1.77-18.58c1.77-12.09 12.97-19.47 25.37-19.17 12.36.31 20.04 9.75 22.37 16.52 2.4 6.78 1.2 17.99 1.2 17.99s.57-2.06 2.34-.29c1.78 1.76.89 5.01-.28 8.55-1.19 3.55-4.72 7.97-4.72 7.97l.57 3.24-1.75-1.18s.6 2.35 1.75 4.43c1.18 2.06.61 5 .61 5h3.22c1.48 0 6.2-.87 5.62 1.77-.27 1.15-.29 4.72-.6 6.49-.31 1.77.31 3.53.31 3.53s2.92 1.18 6.48 3.24c3.53 2.07 10.01 4.72 15.02 9.15 5.02 4.42 12.08 18.87 12.08 18.87s2.06.59 4.14 6.49c2.05 5.9 5.3 7.07 9.44 10.32 4.12 3.25 2.94 9.43 3.83 10.63.88 1.18 2.94 7.95 5 12.38 2.07 4.42 2.93 10.31 2.93 10.31 1.48 8.85 3.27 20.06 0 23.01-11.55 10.52-28.27 2.95-28.27 2.95l-15.35 17.41c1.18 1.19 1.48 2.07 1.48 3.84 0 .68 2.49 1.31 3.54 2.35 1.6 1.59 2.07 3.54 2.07 3.54s36.54 1.76 37.42 3.24c.9 1.47.6 6.48-.88 7.08-1.46.58-31.54-.64-31.54-.64s8.23 23.36 10 26c.18 19.59.1 62.28 0 64-1 16.02-50.29 22.83-61.34 9.02-2.07-31.4 1.31-55.82-1.34-56.69-2.64-.9-16-11.62-18.07-11.33-2.07.3-16.21 2.94-16.21 2.94l-5.32 1.18s-7.36 3.84-9.74 5.3c-2.35 1.49-19.46 6.5-30.05 7.68-10.64 1.18-14.76 3.53-18.28 7.36-3.56 3.83 2.63 26.84 4.42 31.27 1.77 4.43.59 15.34 2.08 21.24 1.45 5.88.87 22.7.87 26.24 0 3.54-2.67 5.61-6.19 7.96-3.55 2.38-19.18 6.79-23.88 6.79-4.72 0-13.86-2.35-14.75-1.76-.88.58-16.52-7.08-16.52-7.08s-1.44-2.96-.58-5.3c.89-2.38 2.06-7.4 2.06-9.44 0-2.07-.88-7.08-.88-11.21 0-4.13-1.18-15.93-.6-25.96.61-10.03 4.14-33.03 4.73-36.87.59-3.84 2.06-13.86 2.06-18.28 0-4.42 4.72-14.46 6.5-20.94 1.75-6.49 17.68-11.22 23.86-14.46 6.2-3.24 26.54-9.14 26.54-9.14l10.02-2.96s1.79-1.16 3.25-1.77c1.48-.58 6.77-3.53 10.01-5.9 3.25-2.35 13.55-5.6 13.55-5.6s-2.94-8.25-4.4-13.57c-1.48-5.31-.88-17.11-.88-23 0-5.9 2.96-30.98 2.96-33.91 0-2.96 1.76-7.67-.61-14.46-2.34-6.78-5.59-7.08-7.66-11.79-2.05-4.73-5.6-19.19-7.36-23.02-1.77-3.83-7.96-5.6-10.91-7.08-2.95-1.48-7.67-9.45-11.19-13.56-3.56-4.13-7.39-4.72-5.31-15.05 2.06-10.32 7.95-15.63 9.13-15.92 1.18-.3 4.71-5.6 5-7.38.3-1.77 1.18-8.25.89-14.44-.32-6.19-.9-18-.9-18l-1.18-.3c-1.18-.29-1.18-6.77-1.18-6.77s-34.5 3.83-36.25 3.83c-1.77 0-1.48-4.71-.88-5.91.59-1.17 33.9-4.41 33.9-4.41s1.77-2.96 2.36-4.43c.59-1.48 3.81-2.65 6.47-3.53 2.66-.88 5-.88 7.09 0 2.05.89 3.51-.88 4.7-.88 1.18 0 2.07 1.77 3.55 2.36 1.45.58 4.43 2.94 4.43 2.94s13.25-1.48 18.27-1.48c5 0 13.56-1.18 13.56-1.18s0-2.95-.6-4.73c-.62-1.77-4.43-6.18-5.31-7.36-.88-1.18-3.84-7.08-6.2-11.51-2.37-4.43-2.96-11.8-2.96-11.8zm223.77 104.44s2.69 14.516 7.02 22.945c1.087 2.65 5.09 12.038 9.523 21.733 5.17 11.306 11.106 23.02 12.493 25.986 0 0 1.703-.59 2.988-1.34 1.283-.76 2.1-1.29 6.728-2.76 4.634-1.46 10.72-4.56 11.83-5.32 1.11-.76 4.566-1.88 8.55-2.93 3.973-1.05 12.057-2.92 15.803-3.74 3.74-.82 4.8-1.29 8.66-1.29 3.87 0 6.72-1.04 9.01-1.17 4.69-.25 9.31-1.43 13.34-1.27 5.1.21 9.52 2.06 13.42 2.79 3.57.66 6.38-.1 8.86.48 4.5 1.05 7.33 3.27 7.7 3.63.93.93 2.69.48 4.56.82 1.87.35 3.39.82 3.39.82s-.82-2.1 1.05-2.69c1.87-.59 1.75.24 1.75.24s6.59-1.98 14.76-1.35c6.64.51 13.69 3.69 20.01 4.84 6.83 1.25 8.43.73 12.3.85 3.86.11 8.42 1.29 10.65 1.41 2.22.11 5.85.23 5.85.23s-1.87-1.63-1.63-4.8c0-1.51-.24-2.57.93-2.45 1.17.12 2.22-.12 3.15-.24.94-.12.7.7.24-1.75-.47-2.46 1.64-5.27 2.46-6.79.82-1.52 6.21-9.25 7.49-10.89 1.29-1.64 16.74-13.58 22.82-13.11 6.09.47 10.42 2.46 13.35 4.33 2.93 1.88 4.69 4.57 5.86 6.09 1.17 1.52 5.15 5.15 6.32 7.38 1.16 2.23 2.81 5.15 2.34 9.25-.47 4.1-.47 5.86-1.29 7.03-.82 1.17-2.05.88-2.46.41.06 2.57.41 4.22-.18 5.8-.58 1.58-1.12 2.4-1.17 3.04-.07.65-.54 1.35-.94 1.35-.41 0-2.11-.81-2.4-.93-.3-.11-1.12 1.53-.94 2.29.16.76 1.51 6.44 1.46 7.2-.06.77-.06 1.17-.24 1.41.46.53.17 1.12-.24 1.47-.41.36-1.23 3.05-3.57 4.98-2.17 2.7-7.27 7.9-7.79 8.61-.53.7-.99 1.35-.99 1.35s-2.93 5.1-3.57 5.1-.95-.17-.82.65c.11.82.64 1.11.7 2.98.35 1 2.34 4.57 2.8 5.69.47 1.11 2.82 6.73 3.34 8.66.52 1.93 1.17 3.22 1.28 5.98.17 1.22.65 1.69.52 2.63.13.82.76 1.23.83 2.45.05 1.23-.83 2.4-.64 3.28.17.87.64 5.91.76 6.73.11.82.29 4.28-.24 5.33-.52 1.06-1.7 8.32.17 12.3 1.87 3.98 5.51 3.98 6.21 4.33.7.35 3.86 1.05 4.92 4.33 1.05 3.28 2.22 6.2 5.26 9.01 3.04 2.81 5.74 4.21 8.19 9.48 2.46 5.28 4.22 8.2 4.22 8.2s4.92.47 6.44 2.34c1.51 1.88 2.46 3.87 3.39 5.74.95 1.88 4.23 5.62 6.1 7.03 1.87 1.41 3.39 3.98 7.95 6.09 3.28 1.99 4.57 2.58 5.74 4.1 1.17 1.52 2.46 3.63 2.58 4.11.12.46-.47.34-1.29.93-.82.58-1.17 1.4-1.17 1.4s1.48.94 2.18 1.8c.7.86 2.41 2.57 3.35 3.67s2.89 2.89 3.48 3.63c.58.74 1.52 2.31 1.52 2.54 0 .23.89.82 1.44 1.64.55.81.85 2.26-.04 2.37-.87.11-3.05.26-3.79-.63-.33-.49-.44-.67-.47-.76-.29.05-1.74.29-2.61-.21.34.63.85 1.18.81 2.04-.04.86-2.1.94-2.97.63-.86-.32-1.17-1.17-1.48-1.79-.32-.62-1.41-.59-1.68-2.04-.59-.08-3.56-2.26-4.76-3.36-1.41-.82-3.21-2.33-3.75-2.84-.94.59-1.37 1.88-.36 3.24.59.94 2 1.91.87 2.54-1.13.62-3.04.34-3.98-.86-.94-1.22-1.37-3.98-1.57-4.96-.19-.98-.15-2.15-.15-2.15s-.12-.43-2 .51c-1.87.93-4.33.93-4.33.93s-1.25 1.6-1.17 3.32c.07 1.72 0 4.6-1.84 6.01-1.53 1.13-6.21.82-6.76.39-.54-.43-1.16-1.8-.15-2.3 1.01-.51 1.55-.35 2.03-1.33.46-.97.87-2.14.82-2.92-.05-.78-.09-2.23-.2-2.46 0 0-1.02.31-1.25-.15-.24-.47-.59-1.05-1.61-1.72-1.01-.67-4.68-2.97-5.78-3.75-1.09-.78-4.33-3.44-5.97-4.45-1.64-1.01-3.83-2.14-5.03-3.9-1.22-1.76-7.62-8.67-8.52-9.76-.9-1.09-8.59-10.58-10.3-12.61-1.71-2.03-6.17-6.4-7.26-9.4-.39-.86-1.76-2.3-2.11-3.08-.35-.78-1.72-3.66-1.41-4.45.31-.77.11-1.05-.27-2.19-.39-1.12-.86-1.63-.98-3.39-2.34-2.8-10.3-10.3-14.63-15.69-4.34-5.38-6.57-15.45-7.5-19.55-2.11.71-5.85 1.41-7.72 1.53-1.87.12-5.74 2.57-9.6 3.98-3.87 1.41-10.89 4.22-12.42 4.69-1.51.46-2.34.7-2.92.7.12 1.51.64 6.67-.17 9.49-.13 2.22-.59 3.51-.59 3.51s.36.93.17 2.1c-.18 1.18-.47 2.35-.47 2.35s2.23 1.52 2.92 1.98c.7.47.99.47 1.64 1.93.64 1.47 3.1 4.33 3.74 4.97.65.65 2.05 3.05 3.28 3.93 1.23.88 2.93 3.45 3.29 3.92.35.47.64.35-.18.87-.82.53-2.29 1.82-3.46 2.52-1.17.71-8.31 7.32-9.01 8.08-.71.76-2.76 2.69-2.76 2.69s-1.99 1.71-2.28 2.05c-.29.36-.58 8.02 1.24 12.71 1.82 4.69 2.69 7.32 3.57 8.61.87 1.28 1.7 1.28 2.05 1.99.35.7 1.64 2.17 2.82 3.04 1.17.88 3.81 1.58 5.33 2.52s2.92 2.52 4.5 3.52c1.59.99 5.8 3.1 5.8 3.1s8.38 3.11 7.39 3.46c2.75 1.05 6.85 2.46 8.25 2.69 1.41.24 3.87.82 5.03 1.12 1.18.29 2.17 1 1.76 3.17-.41 2.17-1.06 2.05-1.06 2.05s.18 1.87-1.93 1.99c-2.11.12-7.73 1-13.64.76-5.86.06-12.41.12-20.55-.76-8.08-.64-14.87-1.86-19.09-1.92-4.21-.06-9.54-.46-10.42-1.7-.88-1.22-1.53-3.63-1.53-3.63s-1.29-1.05-1.41-2.11c-.11-1.05.08-1.61.45-1.96.34-.34.7-1.19.7-1.19s-.68-1.68-2.59-5.31c4.85-16.73-.21-29.79-.56-30.42-.97-1.8-.81 19.28-4.29 32.07-.32-.18-.7.26-.91.62-.2.35-2.16 2.2-2.51 2.72-.35.53-.9 1.95-2.58 2.54-1.66.58-13.23 1.53-21.66-.35-2.23-.12-3.63-.36-4.5-.29-.88.05-2.35.35-3.87-.24-1.52-.58-2.11-1.34-2.51-2.46-.42-1.11-.6-.4-1.47-.12-.88.3-4.28.83-6.09-.22-1.82-1.06-3.16-2.52-4.16-3.28-.99-.76-2.69-1.4-3.8-1.93-1.11-.53-1.94-.47-1.94-.47s-1.05.47-1.93-.59c-.4-.81-.93-.4-1.29-.34-.34.06-3.1-.71-4.91-1.93-1.87-1.06-4.68-1.87-5.44-2.12-.76-.23-3.87-1.17-6.04-2.8-2.16-1.64-3.21-2-3.69-2.93 0 0-7.78-2.75-14.4-3.87-6.62-1.11-10.31-1.57-18.1 2.87-7.78 4.45-11 6.91-12.47 8.32-1.46 1.4-2.52 2.28-2.92 4.27-.41 1.99.41 4.45.94 5.09.54.65 1.88.83 2.75.53.89-.29 2.7.24 3.4 1.35.71 1.12.76 1.87-.76 2.46-1.52.59-4.04 1.05-5.21 1-1.16-.06-4.1-.3-5.32-1.35-1.23-1.05-2.17-3.27-3.57-5.21-1.41-1.93-4.81-4.74-4.52-8.95.3-4.22 1.7-5.62 3.4-6.86 1.69-1.22 7.54-8.83 9.01-16.04 1.46-7.2 3.39-13.23 5.74-15.4 2.33-2.16 6.14-2.57 9.6-.87 3.45 1.7 4.27 2.41 6.97 3.81 2.69 1.4 15.69 5.92 25.7 7.08.65 0 .06-1.22-.29-1.34-.35-.12-1.18-.12-1.18-.35 0-.23.3-.41.06-1.05-.23-.66-.59-1.12-.64-1.36-.06-.24.12-.29 1.05-.29.95 0 2.12 0 3.58.05 1.46.06 7.91-.47 7.91-.47s-2.22-1.05-1.29-2.87c.93-1.82 6.2 1.11 8.6 3.51 1.05.88 2.34 1.64 2.93 1.87.58.24 1.75.71 1.75.71s.76-.58 1.05-.11c0 0 .41-3.1 1.58-3.86 0 0-2.57-1.35-3.74-2.87-1.17-1.53-2.17-3.58-2.52-5.86-.35-2.29-2.75-10.25-3.39-12.12-.65-1.87-3.16-9.42-4.04-13.11-.87-3.69-1.22-5.5-1.99-7.31-.76-1.82-3.16-7.56-3.57-8.67-.41-1.1-.82-1.99-2.93-3.21-2.11-2.17-4.57-3.98-6.33-9.19-1.76-5.21-1.29-6.55-1.29-6.55s-2.28-2.8-2.52-5.04c-.24-2.21 1.11-4.38 1.46-5.43.35-1.06 3.69-7.85 4.97-10.78 1.3-2.93 2.7-5.74 3.34-6.85.65-1.11 1.46-1.99 2.4-2.87.35-.24.06-.24-.7-.58-.75-.36-1.34-.24-1.93.05-.58.29-2.45 1.29-3.92 1.7-1.46.41-3.1 1.64-3.75 1.87-.64.24-2.75.7-4.16 1.58-1.4.88-2.92 1.35-3.68 1.35s-1.81-.35-2.45.17c-.65.53-.24.82-.47 1.7-.24.88-1.23 2.35-3.11 2.82-1.87.47-5.44 1.57-6.61 2.4-1.17.82-2.4 1.19-3.4 1.19 0 0 .72 1.76-.02 1.91 0 0 1.84 2.86-3.08 3.2-4.92.36-6.94-1.64-6.94-1.64s-.58-.39-.58-1.56c-.74.16-1.64.66-2.61-.43s-2.03-1.48-2.38-1.84c-.35-.34-.63-.74-.63-.74s-2.18-.35-2.89-.97c-.71-.63-1.4-2.78 3.01-3.4-.08-.32-.35-1.09-.15-1.64.19-.63-1.09-.86-1.84-1.53-.74-.66-1.24-2.14-1.29-2.57-.04-.42.35-1.17 1.05-1.56-1.25-.34-1.76-.85-2.03-2.1-.27-1.25.47-1.79.47-1.79s-.12-.59-.86-1.18c-.74-.58-1.01-2.29-.77-2.84.23-.55.97-1.53 2.18-2.31-.7-2.34-2.07-5.7-2.81-6.75-.74-1.05-2.58-1.56-3.4-2.07-.82-.51-.86.23-1.56-2.38-.53-2.67-3.66-10.07-6.7-17.29-4.27-10.89-15.87-34.89-9.65-51.63z"/><path fill="#C9413E" d="M219.988 396.037c1.082-.083 2.074.177 2.996.73l2.205.167s.85.308 1.89 0c1.02-.323 1.65 1.094 1.65 1.094s.86.637 2.2 1.34c1.34.71 3.47 2.595 4.71 4.567 1.27 1.958 2.77 2.914 4.88 4.564 2.13 1.65 4.25 2.19 7.01 3.93 2.75 1.73 9.92 6.37 9.92 6.37s3.85-.39 5.82-.79c1.97-.4 2.13.15 4.18.15s4.56.24 5.97 1.02c1.42.78 2.05.47 3.39 1.01 1.34.56 1.41.24 2.04 2.68.62 2.44.86 5.67 2.2 8.66 1.34 2.98 3.39 7.15 4.01 10.53.63 3.39 1.02 6.29 1.34 7.87.31 1.57 1.25 6.22 1.02 9.6-.24 3.38.71 4.95 1.03 7.24.31 2.27-.24 6.13-.63 8.65-.4 2.52-.71 6.54-1.1 8.02-.4 1.51.14 5.91-.95 7.64-1.11 1.73-1.03 4.4-1.43 6.22-.39 1.8-.39 4.41-.94 5.35-.55.94-.87 2.91-1.19 4.17-.31 1.25-1.81 9.84-2.99 11.88-1.18 2.04-1.66 4.02-2.21 5.75-.55 1.73.24 5.82.79 9.12.55 3.31 1.11 9.76.95 14.95-.17 5.19-.47 13.38-.8 16.76-.31 3.38-.07 8.9-.63 11.49-.55 2.6-1.97 5.74-2.92 6.76-.94 1.02-.86 1.42-1.02 2.36-.16.95-.08 3.15-.79 4.72-.71 1.57.78.94 2.67 2.12 1.89 1.18 2.6 3.15 3.07 4.56.48 1.42.16 3.7-.31 4.25-.48.56 0 2.6.63 3.39s4.09 6.3 4.09 6.3 1.02-.4 2.61-.24c1.56.15 4.16 2.51 5.35 3.38-9.53 42.02-12.76 40.3-15.44 38.41-6.38 4.95-7.24 9.43-7.71 10.3-.48.87-1.27.48-3.47 0-7.42-11.17-9.22-16.92-10.17-16.92-.94 0-3.06.55-6.92 1.34-3.86.78-8.89 1.25-11.89 1.57-2.99.31-6.53.31-6.53.31s-3.07 11.96-3.39 12.67c-.32.7-.23.78-1.09.62-.87-.15-6.7-2.67-7.49-2.98-.79-.33-1.97-.39-1.5-1.34.47-.94 1.27-6.13 1.27-6.13s-.52.32-1.96.88c-1.01.38-2.82.85-3.71 1.4-2.21 1.33-7.71 3.53-10.47 4.32-2.76.79-5.45 1.89-8.19 3.32-2.76 1.41-4.88 1.88-9.06 3.84-4.17 1.97-9.3 3.78-13 5.2-3.69 1.4-8.49 2.59-9.59 3.22-1.1.63-5.75 4.48-7.49 5.35-1.73.86-4.17 2.83-5.98 4.4-1.82 1.57-6.78 4.81-8.28 5.27-1.49.47-2.27 1.57-3.54 2.44-1.26.86-11.49 6.37-11.49 6.37l-1.11.4c-1.1.39-1.41.87-1.41.87s-.08.08-1.19 1.09c-1.11 1.04-9.13 5.45-12.36 6.87-3.22 1.41-10.94 4.87-12.2 5.58-1.26.7-2.37-.87-3.55-1.89-1.18-1.01-3.15-3.13-4.57-4.88-1.41-1.72-3.54-4.01-3.54-4.01s-.56.63-1.26 1.34c-.7.71-2.67 2.44-2.67 2.44s-1.34 1.42-2.52 2.98c-1.19 1.57-2.05 4.74-3.15 5.67-1.03.85-1.97 1.97-3.78 3.54-1.81 1.57-2.92 1.89-4.89 1.57-1.97-.31-2.67-1.34-2.67-1.34s-1.19 1.09-2.69.55c-1.49-.56-1.57-1.9-1.57-1.9s-1.1.78-2.12-.4c-.75-.85-.87-1.57-.87-1.57s-.71-.47-1.03-1.26c-.31-.8.48-1.98.48-1.98s-.94-.23-.86-1.25c.08-1.03.86-1.98 1.73-3.08s1.18-2.44 2.91-3.31c1.74-.87 2.45-1.26 4.5-3.3 2.05-2.05 5.51-4.26 7.32-6.23 1.82-1.96 5.36-2.99 5.36-2.99s-.16-1.27.79-2.83c.95-1.59 3.77-5.2 6.53-7.18 2.76-1.96 6.62-1.26 7.25-1.33.63-.08 3.46-3.31 5.59-5.59 2.13-2.29 4.41-4.64 6.22-5.83 1.81-1.18 8.98-5.2 11.5-6.84 2.52-1.65 8.59-4.72 11.18-7.09 2.6-2.35 3.63-2.98 5.13-3.77 1.49-.78 3.77.22 5.03-.86 1.26-1.1 2.36-1.26 2.99-.95.63.32 1.66-.47 3.31-1.1 1.66-.62 1.9-.08 2.76-.86.87-.79 1.89-.79 2.51-.87.63-.08 2.06-1.57 4.34-2.83 2.29-1.25 5.2-2.28 5.75-2.67.55-.39 1.73-1.26 2.36-2.28.64-1.02 1.74-3.31 3.24-5.03 1.49-1.73 2.52-1.66 3.22-2.2.71-.56 1.5-2.14 2.52-4.02 1.03-1.89 1.97-1.74 2.6-2.21.63-.47.79-1.49 1.34-2.98.55-1.51 1.57-1.89 2.44-2.38.86-.47 2.36-2.36 3.3-3.7.94-1.35 1.57-2.53 2.12-3.86.55-1.34 1.9-2.36 2.84-3.31.94-.95 2.6-2.21 3.15-3.15.54-.95 4.87-5.44 5.82-6.3.94-.87 4.09-.79 4.41-1.26.31-.48.62-2.13 1.1-2.92.47-.78 1.5-3.08 2.44-4.02.95-.95 1.26-1.19 1.89-2.29-1.33-9.84-6.62-5.44-8.19-5.11-1.57.3-4.09 1.97-5.68 2.52-1.29.44-2.43.94-3.85 1.09-1.42.16-2.92-.4-3.7-.4-.79 0-1.42.56-2.59 1.51-1.19.94-2.61 2.6-5.29 4.57-2.67 1.96-3.93 1.64-4.72 1.96-.78.31-.63.78-1.73 1.49s-.55 1.33-1.26 2.67c-.71 1.34-1.65 2.83-3.23 4.17-1.57 1.34-6.45 5.83-8.5 7.79-2.04 1.97-9.13 8.35-11.81 10.79-2.68 2.43-6.21 5.27-8.26 7.08-2.06 1.8-3.7 2.52-4.81 3.38-1.11.87-1.81 1.56-2.37 2.52-.55.94-2.12 2.52-3.22 2.91-1.11.4-1.66.08-3.31-1.02-1.66-1.1-3.94-2.85-5.59-4.8-1.65-1.98-2.91-2.92-2.91-2.92s-.55.17-1.5.24c-.94.09-1.65-.07-2.13.39-.47.48-2.91.31-2.91.31L64.8 663.66s-27.87 24.18-28.66 24.97c-.79.78-1.5 1.81-2.6 1.25-1.1-.55-2.52-2.11-2.59-2.99-.08-.86.31-1.18 2.99-3.46 2.67-2.29 31.65-27.93 31.65-27.93l32.2-27.625s-.71-2.21-.71-3.55c0-1.35 1.5-1.57 2.37-2.127.86-.56 2.44-.79 2.13.46-.31 1.26.07 1.26.07 1.26l2.05-1.18s0-.31-.39-.94c-.39-.65-1.18-2.06-.62-3.55.54-1.5 1.88-2.68 3.23-3.78 1.33-1.1 12.2-13.37 15.03-16.6 2.84-3.22 7.96-8.03 10-10.15 2.05-2.12 4.41-3.15 5.44-4.18 1.02-1.02 4.87-5.9 8.03-8.98 3.14-3.05 17.4-19.42 20.31-22.33 2.91-2.92 6.53-5.2 7.09-5.91.55-.707 1.49-1.97 2.28-3.46.79-1.497 4.8-4.01 7-6.46 2.21-2.43 5.99-5.586 9.21-8.33 3.24-2.76 9.62-6.3 9.62-6.3l1.18-1.03s-2.42-.66-3.7-2.28c-.86-1.1-.54-1.656-.63-3.066-.08-1.418-1.26-1.5-2.2-2.83-.52-.74.09-1.98-.54-2.21-.395 0-1.74-1.03-1.34-2.37.4-1.33.16-1.41.08-2.28-.08-.87-1-.55-1.89-.55-.56 0-1.97-.47-2.125-1.33-.24-1.33.39-2.45 1.33-5.2.94-2.75 1.57-4.02 1.18-5.36-.39-1.34-1.49-1.1-1.26-1.73.31 0-.31-.23-1.02-.94-.713-.7-1.57-1.64-1.49-2.91.074-1.26-.955-5.58-1.187-7.72-.24-2.11.235-3.85 1.57-6.68 1.34-2.83 2.28-4.56 4.97-7.16 2.673-2.6 5.59-5.51 10.31-8.11 4.73-2.6 9.29-3.14 13.15-3.06 3.86.07 7.81 1.73 10.71 2.44 2.92.69 3.62 2.2 4.33 2.42.714.23 1.89 1.73 1.89 1.73s.87.233 1.654.87c.79.63.64 1.33.64 1.33s1.97.314 3.3 1.115c1.34.78 4.02 2.9 4.25 5.81.24 2.92-1.17 3.86-1.17 3.86s.16 1.27.32 1.88c.16.64.55 2.61.16 3.63-.4 1.02.55.71 1.73 1.97 1.18 1.25-.39 4.49-.39 4.49s.23.86.07 1.73c-.16.86-.08 1.5-.08 1.5s2.75 2.36 2.68 2.91c-.08.55 1.1.48 2.21-.55 1.09-1.01 1.73-1.57 2.28-1.96.55-.4 1.5-1.66 1.5-1.66s-1.9-3.77-2.21-5.34c-.32-1.57 1.58-1.57 2.6-2.2 1.03-.637 1.18-1.51 1.42-2.76.23-1.26 1.49-3.62 2.52-5.19 1.02-1.58 1.41-1.82 1.176-3.237-.24-1.41-2.13-6.53-3.14-8.49-1.03-1.97-.4-2.76-.634-3.62-.24-.86-.47-1.89-1.5-3.93-1.023-2.04-2.13-4.4-3.06-6.3-.95-1.89-.64-1.89-.95-2.91-.193-.61-.84-2.02-1.2-3.32-.24-.86-.2-1.59-.293-2.34-.24-1.9-.71-4.97-1.02-5.99-.31-1.02-.7-2.44-1.26-2.99-.55-.55-4.01-3.15-7.01-5.35-2.99-2.2-4.95-3.7-6.13-4.65-1.19-.93-.64-.43-2.37-1.33-2.13-1.1-5.36-.86-8.58-.86-3.23 0-5.36-.17-6.3-.87-.95-.717-2.76-.25-4.1-.17-1.34.08-4.41.48-5.58.17-1.19-.31-2.85.396-3.63.703-.79.31-1.35 0-1.35 0l-26.45 12.36c-.24.31-38.26 17.55-43.22 19.99-4.97 2.43-18.43 8.65-20.09 9.04-1.66.39-3.08-3.547-3.08-4.64 0-1.1 1.57-1.5 4.17-2.76 2.6-1.26 46.7-21.88 46.7-21.88L203 408.42s-.66-1.35-.155-2.685c.787-2.05 2.12-2.51 3.304-2.29 1.18.24 1.97.47 1.97.47s-.63-1.8-.55-3.15c.08-1.333 1.88-2.743 3.22-2.123 1.34.63 2.2 1.34 2.2 1.34s-.7-2.05 1.1-3.148c1.82-1.11 3.79.465 3.79.465s-.16-.47 1.49-1.19l.63-.18z"/><path d="M671.635 344c.998.957 2.045 1.254 2.646 2.38 1.43 2.657 6.83 5.333 7.14 9 2.32 26.91-2.42 58.09-1.93 85.682 2.59.75 3.39-.084 4.97 1.128 1.52 1.164 1.19 4.857 1.19 7.15 0 3.72 1.21 7.03 5.55 6.23 3.47 2.632 5.47 7.303 4.63 12.702-.97 6.224-7.94 8.203-14.39 9.637-2.33 10.3-6.66 17.2-16.5 20.52-2.47.84-5.35 1.4-8.31 1.47-9.35.22-19.9-1.52-28.78-1.48-9.9.03-16.69 5.4-20.6 10.88-1.19 1.68-3.29 4.49-2.63 7.03 1.15 4.47 10.43 1.75 13.6 1.13 10.15-1.99 19.01-.32 24.82 3.17 2.58 1.54 6.05 4.26 7.26 6.8 1.72 3.55.29 8.01-1.18 11.45-2.26 5.23-5.22 9.11-8.18 13.27-.78 1.09-1.18 2.35-1.85 3.5-3.29 5.63-7.75 10.11-13.06 14.18-1.94 1.49-3.88 3.05-5.94 4.99-1.73 1.63-4.39 4.13-4.62 6.23-.15 1.35.82 1.56.53 3.17-.18.98-1.14 1.37-2.25 1.7-3.49 1.05-10.04.54-9.64 4.87.3 3.15 6.61 3.64 10.3 4.53 1.75.42 3.8.9 5.81 1.69 1.42.56 4.24 1.79 4.09 3.17-.25 2.36-6.19 2.33-9.1 2.5-10.09.57-18.31.68-28.91 1.01-2.18.07-4.58.3-5.54-.22-.82-.44-1.03-1.85-1.32-2.61-.39-1.02-.93-2-1.06-2.95-.45-3.28 2.05-6 2.64-8.06.28-.98.05-2.43.26-3.29.75-3.01 3.77-4.05 5.68-5.9 1.26-1.22 2.43-3.92 3.44-5.66 2.15-3.73 4.37-7.23 6.47-11 1.17-2.09 2.61-4.23 2.77-6.02.24-2.55-1.37-3.51-3.03-4.19-4.99-2.04-12.58-.93-19-.67-3.28.13-6.46.58-9.25 1.13-2.89.58-5.44 1.66-8.05 2.15-2.73.51-4.99-.32-7.25-.8-8.32-1.74-13.87 2.61-18.22 6.12-6.92 5.58-15.01 12.78-23.37 17.69-1.91 1.12-3.7 1.74-6.07 2.38-4.32 1.16-8.49 2.51-12.41 4.42-3.63 1.76-6.35 4.38-10.03 6.46-1.56.87-3.67 1.83-5.81 2.61-2.11.76-4.81 1.81-7.26 1.81-4.07-.97-7.81-1.32-10.69.91-2 1.54-2.94 3.65-5.41 4.98-1.99 1.07-5.38 2.02-9.37 1.7-2.68 1.27-6.26 2.78-10.17 4.09-3.73 1.23-8.11 2.68-12.28 2.26-1.81-.19-3.32-1.2-3.69-2.38-.94-2.99 2.35-5.27 4.23-6.7 5.82-4.43 13.51-6.61 20.07-9.98 6.74-7.85 13.34-15.89 20.2-23.81.93-1.08 2.05-2.78 3.04-3.29 1.24-.65 3.57-.79 5.14-1.47 1.67-.73 3.56-2.95 5.14-4.31 10.44-8.97 20.48-17.48 30.89-26.42 1.53-1.32 4.37-3.28 5.02-4.54.88-1.68.66-3.8 1.46-5.21 3.34-2.5-27.79 4.16-45.61 7.33-1.8-.78-1.12-6.02-2.84-6.88 19.26-3.5 39.86-7.37 59.14-11 1.4-.27 2.95-.31 4.09-.69 1.12-.36 4.93-2.78 5.28-3.29.77-1.11.76-3.12 1.72-4.54.76-1.12 2.63-1.72 3.17-2.84 1.18-2.42 1.1-6.03 2.24-8.84 1.17-2.88 3.72-5.94 5.67-8.96 5.81-8.97 12.33-17.98 18.76-25.74 8.93-10.77 19.62-21.18 37.89-23.13 1.02-1.18 1.87-2.47 2.77-3.85.92-1.41 1.4-3.08 2.38-4.32 1.04-1.3 3.01-1.69 3.71-3.17.78-1.68.25-2.84.4-4.42.44-4.98 4.66-8.55 8.18-11 3.64-2.53 9.7-5.74 15.19-3.52 2.42.99 4.07 2.53 5.67 4.2 3.97 4.13 7.93 8.59 8.64 15.91.13 1.31-.06 1.53-1.1 7.45-4.35-5.32-19.55-7.23-22.01-6.05-2.46 1.17-6.59 7.91-2.41 8.21 4.18.3 17.24 1.41 19.2 3.01 1.96 1.59 1.11 5.91.87 7.29-.33 1.82-1.67 3.16-1.85 4.99 7.26-.6 13.07 1 15.85 4.65 1.1-.46 3.38.12 4.89-.33.89-.28 2.63-2.19 3.03-2.96 1.01-1.93 1.15-5.04 2.37-6.69 1.03-1.38 3.99-1.55 4.5-2.84.44-1.11.07-4.08.13-6.02.2-6.31-.41-67.79-1.59-91.05z"/><path fill="#C9413E" d="M911.453 406.31c5.346.046 11.29.174 15.62 3.74 4.046 3.796 3.916 2.91 4.93 3.542 1.016.633 4.345 2.866 5.694 4.76 1.35 1.9 1.897 7.043 2.064 8.1.17 1.057.68 4.597-1.73 5.144-.12.763.55 2.065.73 2.996.17.928-.42 3.796-.38 4.425.04.635.04 1.432-.25 1.563-.29.125-.8-.423-1.26.168-.46.59-1.52.633-1.81.633 0 .47.34 2.79 1.26 4.27.93 1.48 1.1 2.82 1.1 3.88.43.63.68.72.68.72-.38 1.05-1.01 3.33-1.47 4.13-.46.8-3.72 6.32-4.31 7.67-.58 1.35-2.82 5.15-3.2 5.95-.38.8-.68 1.09-.76 1.27 1.01.17-.71 4.3-1.35 5.14-.63.85-1.22 1.14-1.22 1.44 0 .29-.42 1.01-.42 1.01s.5 1.56.54 2.41c.05.84.22 1.99.52 2.53.29.55.55 1.73.41 2.24-.12.51-.5 1.01-.5 1.01s.6.64 1.4 2.83c.8 2.2 2.78 8.35 3.03 11.01s1.27 11.01 1.02 15.82c-.25 4.81-.88 8.73-3.03 11.77-2.15 3.04-2.66 4.69-2.66 4.69s3.42 2.91 4.31 5.94c.88 3.04 1.52 6.84 2.28 7.98.76 1.14 2.78 2.66 3.29 4.3.51 1.65 3.04 8.1 3.17 10 .13 1.9 2.66 4.43 3.29 5.95.64 1.52.89 4.93 1.4 8.98.18 1.47.16 2.97.36 4.39.35 2.5.97 4.75 1.54 6.11.89 2.16 1.27 4.81.76 8.1-.63 2.91-7.42 9.74-9.23 10.4-3.43 1.25-6.89 1.2-7.46 1.03-3.35-.96-3.41-2.15-4.22-3.29-.58-.83-.92-2.11-.12-2.78 1.69-1.64.64-.97-.16-2.95-.54-1.48 2.45-4.35 2.87-4.6.42-.26 1.73-2.36 1.98-2.91 0 0-.88-2.18-2.56-4.13-1.69-1.94-1.82-2.48-2.36-2.87-.54-.38-2.95-.59-3.75-1.35-.81-.76-5.06-6.53-6.16-7.79-1.09-1.27-2.15-1.35-4.59-6.88-2.15-4.55-4.01-8.72-4.43-9.74-.42-1.01-1.35-4.93-1.94-6.58-.59-1.64-1.14-2.91-1.35-3.88-.21-.97.55-1.77.55-1.77s-.05-2.02-.43-3.79-2.27-3.35-2.33-6.58c-.06-3.22-1.96-8.09-3.6-8.35 0 0-5.06 2.34-7.02 3.04-1.96.7-3.29 2.09-4.37 2.97-1.07.89-5.94 5.57-13.97 8.98-3.79 1.84-9.74 4.43-11.44 4.69 1.4.7 2.84 1.83 3.1 3.16.25 1.33.32 1.84-.12 2.59 0 0 3.73 3.49 4.3 4.12.57.64 3.23 3.86 4.68 5 1.46 1.14 3.36 3.48 4.05 4.17.7.7.95 1.65 1.21 2.09-.38.63-.07 1.52.32 2.35.38.82 2.85 5.37 3.98 6.7 1.14 1.32 4.17 5.69 5.51 7.46 1.33 1.77 3.04 4.75 4.3 6.65 1.26 1.9 2.34 7.4 1.83 11.57-.5 4.18-.37 5.57-.24 6.96.12 1.4-1.14 5.19-3.54 5.95-2.41.76-2.66-.56-3.93 2.6-1.22 3.05-1.93 4.94-4.8 7.02-.69.44 0 .76-.32 1.27s-.37 1.52-.44 2.47c-.07.95-2.97 6.13-7.34 8.67-1.32 1.52-2.21 2.65-2.85 3.35-.62.7-1.64 2.28-2.33 3.23-.69.94-3.04 4.67-4.24 5.94-1.2 1.28-3.54 4.5-6.57 6.52-.57.76-1.58 1.83-2.09.88-2.03 2.41-6.57 8.61-7.33 10.51-.76 1.9-.57 3.67-.89 3.86-.31.19-.69 1.27-.69 1.58 0 .32-.45.32-.45.95 0 .64 1.08 1.52 2.41 2.4 1.34.89 4.37 2.98 5.64 3.68 1.26.7 4.74 3.54 6.26 4.37 1.52.82 4.68 2.59 6.38 2.78 1.71.19 3.99.95 5.51 1.2 1.52.25 2.91.31 3.67.82.76.5 1.64 1.07 2.02 1.71.38.63 1.07 1.2 1.07 2.28 0 1.07-1.07 1.32-1.32 1.39-.26.06-1.39.95-2.28 1.07-.88.12-5.94.25-8.6-.19-2.66-.45-7.9-.13-10.61-.76-33.19-18.51-30.67-21.08-28.98-24.83-.25-.99-.47-1.99-.67-2.99 1.82-4.15 3.77-8.24 5.59-12.4.79-1.8 1.82-3.8 2.24-5.76.12-.72-3.44-4.45 0-8.86 3.45-4.4.23-1.3 2.6-5.81 4.44-8.44 3.93-8.27 3.96-9.3.05-1.65-.78 2.2 5.15-7.02 5.93-9.22.55-10.88.45-11.79-.26-2.28-11.76-7.04-12.15-10.42-.37-3.38-10.31-5.57-9.51-8.68-1.01-.85-1.31-1.14-1.77-1.6-.76-.05-5.4.59-8.27-.26s-5.36-1.18-5.57-1.26c-.2-.09-.88-.09-2.19.54s-3.2.97-3.75 1.18c-.55.22-4.6 4.14-5.65 5.19-1.06 1.05-7.21 8.26-8.35 9.32-1.14 1.05-7.46 8.13-9.07 9.69-1.6 1.57-13.43 14.14-15.81 13.71-35.64-47.15-50.06-84.43-50.18-85.7 14.55-23.67 16.38-31.89 18.85-28.92.51-.5.84-.58.84-.58.33.55 4.05-3.12 6.16-5.31 2.1-2.19 8.75-9.14 8.75-9.14s7.78-7.84 8.79-8.98c1.01-1.14 2.72-3.1 5.63-4.75 2.91-1.64 3.54-2.08 6.32-3.73 2.78-1.64 8.16-6.38 10.94-8.28 2.78-1.9 4.31-3.61 7.27-4.74 2.98-1.14 4.05-1.39 6.08-1.14 2.02.25 3.1.63 4.17 1.14.64.32 1.9-.38 2.97-.95 1.08-.57 4.81-.69 7.1-.82 2.27-.13 5.75-1.77 8.78-1.77 3.04 0 5.76.57 5.76.57s.56-2.27 2.4-2.47c1.84-.19 1.39.76 2.47 1.01 1.08.26 5.76-.88 9.43-.12 3.66.76 8.09-1.13 13.53-2.78 5.44-1.65 11.39-2.4 14.93-2.02 3.54.37 6.95-.13 8.22-.26 1.27-.12 5.19.26 6.96 0 1.77-.25 3.73-.57 3.73-.57s.38-1.77.06-2.84c-.31-1.08.32-3.86.51-4.31.19-.44.57-.38 1.14-.32.58.06 1.4.45 1.71.25.32-.19.64-.63 1.34-.63 0 0-1.21-2.28-1.21-4.24 0-1.96 3.36-14.79 9.55-20.99 1.77-4.05 7.97-10.63 12.77-10.88l1.97-.07zm-85.628 257.887l.002.01-.002.002c.074.74-.134 1.05-.548 1.55-.065-.47.353-1.11.548-1.55v-.02zm61.66 52.85l.795.144c1.81 1.76 4.82 2.31 6.493 4.19-54.118 13.11-105.75 31.73-153.566 52.32-2.75 1.18-8.62 2.99-9.122 4.68-1.24 4.18 2.85 4.54 5.195 6.01 4.42 2.77 7.04 7.24 12.45 8.64 2.584.66 4.82-.01 7.55.28 8.53.9 15.008 13.47 15.812 20.9.16 1.45-.124 3.88-.016 5.74-3.664 7.63-13.712 11.26-23.172 9.86-3.56-.53-4.66-4.54-8.306-4.97-4.286-.51-9.222 2-14.043.75-1.343-.35-3.57-1.4-5.194-2.36-3.17-1.87-9.13-9.7-13.5-9.16-6.1.75-3.44 11.74-4.21 17.72-.6 4.73-3.4 7.04-5.99 9.64-1.01 1.01-4.83 3.82-4.69 5.98.22 3.61 9.09 5 12.98 5.25 1.88.12 4.55-.17 5.99.01 1.18.16 2.38.83 3.64 1.05 3.58.63 7.76.8 11.71 1.08 4.09.29 8.59.3 11.96 1.07 3 .68 5.1 2.51 8.06 2.63 2.1.09 4.23-.51 6.24-.51 8.78.02 17.03 2.7 23.66 5.79 6.72 3.14 12.04 7.9 17.66 11.78 12.19 8.44 25 14.57 37.93 21.22.16 1.98-1.6 3.04-1.31 5.21.29 2.24 3.95 4.38 6.23 6.02 7.68 5.51 16.26 7.96 24.42 12.58 4.96 2.8 10.11 6.25 14.81 9.68 2.57 1.89 13.23 7.96 11.67 13.07-.87 2.84-6.15 2.03-9.11 1.02-6.24-2.1-13.64-8.96-22.08-8.66-7.07.25-16.2 2.33-18.72-3.44 1.01-11.22-8.89-13.38-16.08-17.24-4.48 3.85-7.15 9.54-11.22 13.8-2.27-1.19-3.82-2.94-5.71-3.92-3.23-1.69-7.35-1.87-11.17-2.9-2.61-.7-5.24-1.87-7.79-2.88-12.35-4.9-22.66-12.14-33.24-19.38-2.11-1.44-5.23-3.98-6.49-4.18-1.08-.16-3.26.37-4.94.51-8.89.72-16.88 1.78-24.97 2.28-3.31.21-6.99-.39-9.88 1.29 2 7.9 5.29 14.49 7.23 22.45-3.47 1.11-6.97 2.2-10.66 3.1-2.97-7.97-5.64-1.57-8.69-9.46-4.81-9.85-8.87-6.85-9.66-4-8.32.87-9.18-4.01-16.7-6.44-6.6-2.13-13.54-5.66-20.55-3.71-6.37 1.77-6.75 8.53-8.36 15.63-.78 3.42-1.51 6.95-2.37 10.17-1.73 6.52-3.28 13.92-6.81 18.24-1.89 2.31-4.74 3.21-7.55 4.94-2.17 0-4.34-.01-6.5-.01-4.31-2.66-9.04-4.73-13.76-6.82-14.3-6.29-28.94-12.26-42.86-18.87-2.38-4.65-5.24-8.82-7.24-13.84-7.38-25.67 18.01-38.42 32.38-43.43 5.09-1.78 15.12 1.77 19.74-.26 2.09-.91 6.8-5.7 6-9.11-.45-1.92-4.26-3.75-5.44-4.71-1.88-1.5-4.88-3.34-4.93-5.48-.04-1.61 1.94-3.77 2.62-5.21 1-2.13 5.09-13.32-.24-13.82-1.33-.12-3.69 2.42-4.94 3.64-1.5 1.47-3.18 3.41-4.95 3.9-4.12 1.12-10.78-1.14-13.77-3.17-1.49-1.01-2.4-2.92-4.16-3.92-5.6-3.2-16.39-2.35-20.53-6.83-1.4-1.52-1.59-3.8-2.32-6.79-.53-2.2-1.31-4.4-1.29-6.25.09-4.29 2.64-8.27 4.71-10.95 2.51-3.24 6.33-7.75 10.42-4.93 6.15-2.77 10.97-7.77 16.94-11.17 5.86-3.34 12.29-7.22 20.04-8.03 2.66-.27 5.31.92 8.06.81 5.63-.25 9.94-7.35 14.84-7.79 2.08-.19 4.26 1 6.49 1.32 3.17.46 6.69.5 9.89.54 3.07.05 6.7.49 8.84-1.54-3.63-8.61-8.25-19.45-5.39-28.44 2.27-7.11 9.04-12.08 17.2-12.73 6.99-.56 12.01 1.23 17.67 3.17 3.71 1.26 9.41 2.69 11.96 4.72 1.47 1.18 2.57 3.64 4.15 5.74 1.12 1.5 3.64 3.76 4.14 5.75.38 1.53-.4 3.24 0 4.69.95 3.46 5.93 4.43 7 8.36-.72 1.9-3.57 2.75-4.17 5.21-.57 2.33.18 5.01.24 7.82 2.5-.01 4.08 1.52 6.76 1.33 2.82-.2 5.61-2.25 8.33-2.07 1.73.12 3.34 2.32 4.93 2.36 1.35.03 6.61-2.73 9.38-3.89 9.57-4.03 19.09-8.37 28.12-11.93 35.3-13.92 71.1-27.54 109.85-37.29 3.72-.94 7.63-1.17 11.17-2.32.53-.21 2.46-1.02 2.81-1.1.44-.1.9-.05 1.34-.08z"/><path fill="#FFF" d="M182.75 543l4.25-3c2.878 3.607 1.895 4.043 4.57 7.852 3.56-.32 4.423 2.06 5.473 4.255.373-.74 1.828-.034 2.126.304 1.48 2.01 1.35 5 0 6.99 1.16.04 2.52-1.3 3.64-.3-.05 2.09-1.76 1.39-2.23 3.05 4.57 6.37 8.46 13.84 13.43 20.08.32.4 1.73-.1 1.86-.63.38-1.53 1.58-2.4 1.52-3.64-.09-1.51-2.47-4.03-2.74-6.38-.4-3.44.45-5.74 1.21-8.81.46-1.84.41-4.05.91-5.47 1.47-4.14 5.9-6.73 8.51-6.99 9.03-.89 14.2 4.44 15.5 13.07.72 4.81.21 8.74 0 13.37-.55.88-1.84 1-1.83 2.43 1.28-.07 2.41.03 2.73.91-2.77 3.1 1.37 4.6.31 8.21 3.93.92 6.74 2.98 9.41 5.17 3.05-1.86 7.81-.19 10.94.61-.58 6.57 6.88 6.33 4.86 13.38 1.85 3.22 6.74 6.29 7.29 10.95.19 1.62-.2 3.22 0 4.87.78 6.3 5.45 11.56 5.17 18.23-.5 1.13-1.95 1.3-3.04 1.83.7 4.16-1.14 5.86-2.13 9.12-.38 1.27-.23 2.96-.61 3.96-.49 1.31-1.8 2.19-2.13 3.34-.6 2.11.09 4.76-.61 6.68-.53 1.47-1.86 1.43-1.82 3.04 1.57 2.69 3.43 5.08 4.86 7.9-.79.33-1.13 1.11-2.13 1.22-3.94-5.38-8.65-9.76-12.76-15.2-3.1-4.09-6.19-9.22-9.12-14.65.08 4.12 1.71 4.25 2.27 7.56-1.24.03-2.94.47-3.79.11-.53 1.25 1.69 2.07 1.52 3.95-1.31 1.12-1.81 3.06-3.04 4.26 3.8.18 9.19.78 8.81 6.08 1.59 1.85 4.29 2.6 5.77 4.56.47.44.26 1.56.3 2.44 6.98 8.21 14.95 15.44 17.93 27.66v6.07c-.76 2.89-2 5.3-3.35 7.6.07.08-2.94 2.99-4.59 4.24-2.43 1.83-5.1 2.72-8.14 2.21-5.01-.84-8.64-4.95-13.11-7.04-1.4-2.05-5.37-1.54-6.39-3.98-1.43.2-1.44 1.8-3.04 1.83-1.99-1.25-2.59-2.56-2.13-5.77-2.07-1.59-4.38-2.92-6.39-4.56-1.71 2.87-2.47 6.69-3.61 9.89.71 3.34-.07 4.15-2.03 4.15-1.23 0-1.99.07-2.94-.41.07-.06-1.9-2.09-1.82-2.13-.96-3.17-1.49-4.22-.54-8.47-2.89-1.07-5.72-2.18-6.39-5.47-1.36.47-3.44.2-4.56.92-.55 2.02 1.53 3.27 1.52 5.17-.02 1.87-2.1 4.44-2.13 7.29-.05 5.59 2.37 9.4.94 10.51-1.42 1.12-3.04 1.72-4.56 2.03-3.95 1.27-8.57.78-9.72-2.83.13-2.22.98-5.59 1.72-7.8.85-2.54 1.92-3.04.67-6.44-4.73-.5-9.52-4.59-14.28-6.39-2.75-1.04-7.58.13-7.6-2.43-.09-8.71-1.46-18.47.91-19.45 1.96-4.73 5.66-7.55 8.21-11.85 4.54-7.66 3.64-11.72 9.72-12.77 1.82-2.13 4.34-3.56 6.68-5.17-1.29-1.26-3.43-1.9-3.95-3.65-1.39-4.66 1.61-9.77.91-14.58-.3-2.07-1.89-3.72-2.13-5.78-.62-5.28-1.22-7.81-2.74-11.55-6.69-2.37-13.97-5.14-19.46-10.63-5.25-5.26-11.33-10.16-15.19-15.2-.54-.71-.95-2.39-1.21-2.73v-3.65c.86-3.49 1.05-7.66 1.52-11.55.57-.54 2-.22 3.04-.3 4.29-9.39 13.84-13.51 21.58-19.45-.04-3.38 3.95-3.63 2.51-5.65-1.25-1.75-4.5-4.75-5.25-6.5zm74.786 84.37c-1.872.22-3.062 1.008-1.834 2.846-.644.776-1.992.848-2.13 2.13.093 3.838-.593 6.903-1.822 9.422 3.422 5.186 6.765 10.458 10.028 15.807 3.73-1.158 6.19-4.44 5.168-9.426-1.52.2-2.352-.29-3.648-.31-1.153-4.63-1.482-10.07-2.126-15.2-.98-.24-1.8-.64-2.432-1.22-.016-1.4.135-2.98-.306-3.95l-.898-.12zm-64.014-63.84c-1.258 1.023-3.405.424-5.165.303-2.844 3.44-7.094 5.468-6.992 11.854-2.178 1.167-2.4 4.287-2.735 7.295 5.27 2.127 5.802 3.517 9.146 3.855 2.253.228 10.705 5.145 12.724 5.038.627.484 1.602.56 2.14 1.135.706-2.888 3.338-2.958 6.383-2.127 1.012-.51.814-2.223 2.43-2.126-.756-1.48-1.34-2.778-.908-3.95-4.702-6.446-8.34-13.956-13.68-19.757-1.275.413-3.666 2.376-4.864.91-.09-1.225 2.13-1.71 1.53-2.43zM892.747 465c1.16.114.66.087 1.5.113.723-.037 1.105.448 2.176 1.105 1.067.656 2.378 2.417 2.69 3.174.313.762 1 1.83 1.693 3.282.69 1.45.31 2.243-.104 2.694-.414.448-.278.69-.313 1.14-.35 2.07-2.57 3.508-3.94 4.59-1.31 1.037-1.59 1.174-1.73 2.313-.14 1.14-1 2.08-1.73 2.83-.73.76-1.8.97-2.59 1.35-.8.38-2.56.77-3.07 1.18-.56.69-.87.66-1.39.8-.52.14-1.25.76-2.18 1.42-.94.66-2.66.69-3.18.94-.52.24-.42.48-.8.52-.38.04-.48-.44-.9-.27-.42.17-.87.55-1.18.97-.76 1.91-2.31 2.53-2.76 2.56-.45.04-.55-.14-1.04.52-.48.65-2.69 2.38-2.73 3.11-.03.72-.45 2.17-.59 3.04-.14.87-.18.73-.9 1.28-.73.55-1.17 2.04-2.52 3.07-1.35 1.04-3.25 1.79-4.21 2.11-.97.31-2.84.28-2.84.28s-.15.42-1.18 1.59c-1.17 1.35-3.22 3.56-4.49 4.39-1.38.41-2.76 1.59-4.25 2.59-1.48 1-2.94 1.31-3.25 1.24-.31-.07-1.58-.45-2.17-.48-.59-.03-1.38.21-1.45.83.03.79-.45 2.04-.93 3.1-.48 1.07-1.38 2.48-2.8 4s-4.97 4.94-5.7 5.98c-.73 1.03-4.04 4.31-4.08 4.49-1.07.72-1.45 1.69-1.9 2.18-.44.48-1.48 2.07-1.86 2.76-.38.69-2.83 3.97-3.97 5.28-1.14 1.3-5.11 6.21-5.94 7.04-.62.62-2.04 2.71-2.89 3.73-.29.35-.54.33-.64.41-.38.35-.66 1.32-1.11 2.32-.45 1-1.62 4.18-3.07 6.87-1.45 2.69-4.73 10.91-5.56 12.67-.83 1.76-1.52 3.73-1.56 4.52-.03.8-.48 4.18-.66 5.39-.18 1.21-3.01 15.6-3.28 16.5-.28.9-1.66 8.57-1.59 9.25.06.69-1.04 5.91-1.04 5.91-.14.62-.73 3.84-.52 4.39.07.44-1.48 4.14-1.48 4.14s-.28.45-.42.9c-.14.44-.62 2.07-1.07 3.58-.45 1.52-.69 1.83-.79 2.14-.1.31.41.66.55 1 .13.35-.42.45-.39.63.04.17.45.63.9 2.07s.8 5.21 1 7.25c.21 2.04.18 3.18.45 4.84.45 2.11 0 4.18-.31 5.21-.31 1.04-1.2 2.7-1.34 3.42-.14.73-.31 1.73-.14 2.17.17.46 1.14 4.12 1.34 5.04.21.94-.03 2.8.21 3.36.24.55.28.62.42 1.21.13.58-.38 1.38-.63 1.83-.24.45-.45.48-.9 1.13-.83 1.24-2.35 1.76-3.42 2.07-.73 5.43-.53 14.61-.4 16.03.13 1.43.75 5.23 1.19 6.16.44.93.62 1.63.26 2-.36.36-.23.42-.54 1.06-.32.65-2.31 1.06-6.12.83-3.81-.23-7.56 1.38-10.78 2.49-3.21 1.12-6.94 1.69-8.59 2.15-1.66.47-3.6.28-4.27.1-.67-.18-1.76-.28-2.2-.83-.44-.54-.54-1.5-.18-2.51.36-1.01 1.35-1.65 1.76-2.17.42-.52.99-.93 1.55-1.09.65-.52.78-.38 1.43-.52.65-.13 2.02-.62 3.49-1.32 4.12-2.2 7.8-6.03 9.24-8.03 1.45-1.99 1.43-2.66 2.05-6.57.62-3.9-.29-11-.29-11-.41-.21-2.09-1.16-2.82-1.34-.1-.23-.13-.34-.18-2.05-.05-1.71.18-2.3.39-3.26.21-.95.26-1.89.55-2.59.29-.7.05-1.01.08-1.91.03-.9-.13-3.42-.18-4.01-.05-.6-.31-1.63-.73-2.3-.42-.67-.57-1.4-.62-1.89-.05-.49-.42-2.04-.26-2.46.15-.42.25-1.35.25-1.84s-.19-1.45-.11-1.63c.07-.18.36-.65.83-1.09.46-.44.51-.7.33-1.42-.12-.52-.18-1.36-.18-1.71 0-.54.44-2.2.8-2.61.36-.42.16-.62.02-.83-.13-.21-.47-.86-.63-1.61-.15-.75-.23-2.41.03-3.03.25-.62-.23-.8-.49-1.5s-.37-2.57-.03-3.6c.34-1.04.11-2.05.18-2.98.08-.93 0-1.63.26-2.54.26-.9 0-1.5 0-2.17s-.02-1.66-.36-1.94c-.34-.28-.83-1.19-1.09-2.3-.26-1.12-1.06-5.8-1.24-7.17-.18-1.37-1.14-6.88-1.27-8.36-.08-.86-.17-1.62-.21-2.43-.03-.58.03-1.26-.2-1.65-.37-.65-1.95-3.47-2.31-4.3-.37-.83-1.06-2.87-1.27-3.93-.73-.15-1.01-.65-1.19-1.09-.57-.93-.42-1.61-.31-1.97.1-.36.02-.72-.16-1.14-.18-.41-.21-.46-.39-1.6-.18-1.14.02-3.68-.13-4.12-.16-.44-.68-.96-.91-1.35-.23-.39-.75-1.37-1.32-1.76-.57-.39-1.53-.91-2.1-1.45-.57-.54-2.17-2.05-2.33-2.41-.16-.36-.18-.42-.55-.36-.36.05-.85-.08-1.71-.46-.85-.39-1.32-1.29-1.57-1.82-.26-.52-.34-.41-.6-.44-.64.05-2.53-.28-4.53-.65-1.99-.36-4.14-.95-6.32-1.55-2.17-.6-4.86-2.38-6.1-3.21-1.25-.83-4.12-2.82-4.48-3.21-.36-.39-1.37-1.25-1.79-1.56-.41-.31-2.43-1.16-3.52-1.71-1.09-.54-3.89-2.22-4.22-2.56-.88-.36-.7.18-.88.88-.18.7-.5 1.22-.5 2.38 0 1.17-.41 3.58-.9 4.38-.49.8-.98.78-1.58 1.17-.59.39-2.64 1.48-3.21 2.04-.57.57-1.71.37-3.73.26-2.02-.1-4.63-.72-5.38-1.03-.75-.31-2.56-.7-3.14-1.27-.57-.57-.88-1.73-1.16-2.87-.29-1.14-1.35-1.71-2.1-2.38-.76-.67-2.46-2.23-2.54-3.73-.08-1.5.31-3.44.2-3.8-.1-.37-.2-.55-.33-.86-.15-1.34.33-2.28.49-2.92.16-.65.49-1.35.49-1.79 0-.44-.23-.83-.16-1.19.09-.36-.09-3.44-.09-3.44 0-.67-.19-1.24-.31-2.2-.03-1.66 0-2.4.33-3.16.33-.75.93-1.5 1.11-1.92.18-.41.44-.88.7-1.45.78-1.91 1.11-2.01 1.55-2.4.44-.39 2.07-1.3 2.56-1.48.49-.18 1.68-.44 2.3-.62.62-.18 1.14-1.24 1.44-1.73.31-.49 1.22-1.66 2.02-2.51.7-.9 1.24-.72 1.55-.8.31-.07.49-.23.6-.49.11-.26.31-.41.18-.78-.13-.36-1.11-2.18-1.19-4.12-.08-1.94.73-4.38 1.12-5.02.38-.65.33-1.08.07-1.78-.59-2.28-1.84-6.47-1.44-7.87.39-1.4.2-2.51.41-3.76.21-1.24.29-4.45.52-6.5.23-2.04.07-2.92 1.09-5.25 1.01-2.33 3.26-5.23 3.99-6.37.73-1.14 1.92-1.48 2.49-1.22.57.26.88.08 1.5-.26.63-.33 1.19-.59 1.71-.43.52.16.44.21 1.5.62 1.06.42 3.57 1.35 5.9 2.46 2.33 1.11 4.04 3.19 5.05 4.51 1.01 1.32 2.05 3.37 2.59 4.04.54.67 1.24 1.35 1.84 1.86.6.52.65.52.26 1.3-.38.78-.38 3.49-.36 4.01.03.51.24.49.45 1.03.2.54-.63.8-.81 1.45-.21.57-.54.93-.54 1.53s.23.78.33 1.86c.32.03.21.21.52.63.3.42.46.65 1.03.08.57-.57 2.48-.93 3.62-1.4 1.14-.46 4.09-.98 4.45-1.5.36-.52.88-.62 1.71-1.3.63-.51 1.86-1.19 2.33-1.55.46-.36 1.5-.41 2.33-.1.83.31 1.29.41 1.81.31.52-.1 1.76-.31 2.8-.41 1.55-.31 1.7 0 3.62.37 1.91.36 8.23 1.86 8.96 2.17.72.31.98.78 2.02.67 1.03-.11 1.92.36 2.33.83.41.47-.26 1.82.1 2.44.47-.51 3.21.31 3.73.47.52.15 1.65 0 2.23.05.56.06.77.37 1.55.73.77.36 1.09.31 1.45.78.36.46.41.1.72-.16s.88-.21 1.61-.26c.72-.05 2.28-.16 3.06.88.77 1.03 2.07 3.62 2.74 4.76.67 1.14.77 3.83.83 4.87.05 1.04.98 4.19 1.34 4.97.36.78.83 1.5 1.4 2.43.36-.2 2.64-1.34 3.47-1.81.83-.46 6.73-3.31 7.87-3.88 1.14-.57 4.69-2.02 5.31-2.26.62-.24 1.55-.48 1.55-.72.03-.45.38-1.04 1.1-2.28 1.1-1.66 1.89-1.66 2.8-2.1.89-.45 3.03-.76 3.62-.9.59-.14.65-.59 1.59-1.42.93-.82 2.48-2.76 3-3.38.52-.62.97-.31 1.83-.41.86-.11 1.8-.04 2.14-.25.35-.2.8-1.03 1.18-1.27.37-.24 1.1-.14 1.58-.48s.89-.79 1.31-1.62c.41-.83.93-.73 1.48-1.04.56-.31.59-.72 1.42-1.41s3.69-2.35 4.35-2.72c.66-.38 2.01-1.21 3.8-2.18 1.97-.66 3.21-2.04 3.52-2.83.69-1.38 1.73-1.25 1.73-1.25s1.14-1.1 1.8-1.83c.66-.72 1.73-2.21 2.11-2.52.383-.31 1.76-1 2.42-1.38.654-.38 3.94-2.31 4.42-2.56.48-.24.76.04 1.65.32.9.28 3.143.66 4.18.86 1.033.21 2.24 1.01 2.62.696.38-.31 1.1-.35 1.52-.62.41-.28.41-.59 1-.59s1.73-.66 2.49-.83c.76-.17 1.243-.76 1.62-1.31.38-.55.695-.59 1.35-.72.65-.134.55-.205.83-.69.28-.48.52-.31.94-.52.415-.2 1.07-.52 1.48-.895.42-.377 1.15-.826 1.765-1 .17-.41.41-1.07.79-1.55.38-.48 2.07-3.21 2.7-4.35.62-1.14 1.42-3.45 2.04-4.94.62-1.48 1.63-1.76 2.21-2.14.59-.38 1.07-.93 1.97-1.07l.61-.04zM516.543 681.094c-.932 21.328-3.8 78.6-3.64 84.382.046 1.772-.243 4.495.102 5.512.4 1.184 2.725 1.335 3.538 2.602.96 1.508 1.07 4.365 1.86 6.13.32.704 1.69 2.455 2.385 2.705 1.186.415 2.98-.114 3.84.307 2.18-3.343 6.747-4.808 12.455-4.263-.143-1.68-1.197-2.91-1.452-4.58-.19-1.27.29-2.44 0-3.84-.23-1.16-2-2.33-2.59-3.33-.67-1.15-1.46-3.05-1.14-4.99.15-.84.66-1.52.73-2.29.1-.95-.34-2.54-.41-3.75-.42-6.65 2.79-10.88 5.92-14.66 1.26-1.53 2.56-2.95 4.46-3.85 4.32-2.04 9.08.91 11.94 3.22 2.77 2.25 6.08 5.52 6.44 10.08.11 1.44-.3 2.51.31 4.05.55 1.36 2.09 1.71 2.91 2.91.77 1.13 1.15 2.66 1.87 3.95.71 1.26 1.38 2.45 2.18 3.53 14.36 1.78 22.77 11.33 29.78 21.21 5.05 7.11 10.18 15.37 14.75 23.59 1.54 2.77 3.54 5.57 4.46 8.21.9 2.58.83 5.89 1.77 8.11.42 1.02 1.89 1.58 2.49 2.6.76 1.3.74 3.14 1.35 4.16.27.47 3.27 2.68 4.15 3.01.9.35 2.1.45 3.22.63 9.58 1.52 17.58 2.27 22.5 2.85 1.56.18 2.56 9.52 1.09 8.91-4.25-1.75-11.75-1.75-15.5-2.5-1.41-.28.78 3.64 1.47 5.18.51 1.15 2.74 2.96 3.94 4.16 8.18 8.2 16.08 16 24.29 24.23 1.24 1.24 2.73 3.28 4.04 3.95 1.24.62 3.07.75 4.04 1.35.78.47 1.66 2.03 2.4 3.02 5.39 7.26 10.58 14.63 15.88 21.82 5.16 3.09 11.2 5.09 15.78 9.15 1.48 1.31 4.06 3.4 3.32 6.13-.29 1.09-1.47 2.01-2.9 2.18-3.28.38-6.72-.94-9.65-2.07-3.08-1.19-5.9-2.58-8-3.75-3.14.29-5.8-.58-7.37-1.56-1.94-1.22-2.68-3.15-4.25-4.57-2.26-2.05-5.2-1.72-8.41-.84-1.92 0-4.05-.96-5.7-1.66-1.69-.72-3.35-1.59-4.57-2.39-2.9-1.92-5.04-4.31-7.89-5.93-3.09-1.76-6.36-2.99-9.76-4.06-1.86-.58-3.27-1.15-4.77-2.18-6.57-4.51-12.93-11.1-18.37-16.22-3.42-3.21-7.78-7.2-14.32-5.61-1.78.44-3.55 1.2-5.71.73-2.05-.45-4.05-1.44-6.33-1.98-2.19-.51-4.69-.92-7.27-1.04-5.05-.23-11.02-1.26-14.94.62-1.31.63-2.57 1.51-2.39 3.84.13 1.64 1.27 3.6 2.18 5.52 1.65 3.45 3.4 6.66 5.08 10.08.79 1.59 1.71 4.07 2.7 5.19 1.5 1.69 3.88 2.65 4.47 5.41.17.78-.01 2.11.21 3.01.47 1.89 2.43 4.38 2.08 7.38-.1.87-.53 1.77-.83 2.7-.23.69-.4 1.98-1.04 2.39-.76.47-2.64.27-4.36.2-8.33-.31-14.79-.41-22.73-.93-2.29-.16-6.96-.13-7.16-2.3-.12-1.27 2.1-2.4 3.21-2.91 1.58-.74 3.19-1.18 4.57-1.56 2.9-.82 7.86-1.27 8.1-4.16.32-3.97-4.83-3.51-7.57-4.47-.87-.31-1.63-.66-1.77-1.56-.23-1.48.54-1.68.42-2.91-.19-1.93-2.27-4.23-3.63-5.72-1.63-1.78-3.15-3.21-4.68-4.57-4.18-3.73-7.68-7.84-10.27-13-.53-1.06-.84-2.22-1.46-3.22-2.33-3.81-4.66-7.37-6.43-12.17-1.15-3.16-2.28-7.25-.93-10.5.95-2.33 3.68-4.82 5.71-6.24 4.56-3.21 11.53-4.73 19.51-2.91 2.49.56 9.79 3.06 10.69-1.04.52-2.33-1.14-4.91-2.08-6.45-3.06-5.03-8.4-9.95-16.19-9.98-6.98-.03-15.27 1.56-22.62 1.35-2.33-.06-4.59-.58-6.54-1.35-7.73-3.05-11.14-9.37-12.97-18.82-5.07-1.32-10.55-3.13-11.31-8.84-.66-4.95.91-9.23 3.64-11.64 3.41.73 4.36-2.31 4.36-5.72 0-2.1-.26-5.49.94-6.56 1.24-1.11 1.37-1.28 3.4-1.97.38-25.29-1.82-49.78 0-74.45.25-3.36 3.47-8.98 4.59-11.41.47-1.03 3.68-2.21 4.47-3.08z"/><path fill="#FFF" stroke="#FFF" stroke-width="5" d="M410.18 507.72c0 54.88.28 82.88-21 104.44-5.6 5.6-9.8 8.68-13.44 10.64-4.76 2.52-6.16 3.64-6.16 5.04s1.12 2.24 2.24 2.24c1.4 0 3.64-.56 5.6-1.68 5.88-2.8 10.36-5.04 14-7.28 26.88-16.52 41.72-35.84 47.6-52.92 5.6-15.68 6.72-33.6 6.72-49.56 0-14-.84-27.44-.84-39.48v-51.8c0-42.56 0-50.4.56-59.36.56-9.8 2.8-14.56 10.36-15.96 3.36-.56 5.04-.84 8.12-.84 3.36 0 5.04-.56 5.04-2.52s-1.96-2.52-5.88-2.52c-10.92 0-28.56.84-35.28.84-7.28 0-24.92-.84-39.76-.84-4.2 0-6.16.56-6.16 2.52s1.68 2.52 4.76 2.52c3.92 0 8.68.28 10.92.84 9.24 1.96 11.48 6.44 12.04 15.96.56 8.96.56 16.8.56 59.36v80.36zm113.98 88.72c17.28 0 34.56-3.84 48.32-13.44 22.08-15.68 27.2-40 27.2-53.12 0-25.6-8.96-45.44-46.72-75.2l-8.96-7.04c-30.72-24-39.04-35.52-39.04-53.76 0-23.36 17.28-37.12 39.36-37.12 29.44 0 38.08 13.44 40 16.96 1.92 3.52 3.84 12.16 4.16 16 .32 2.56.64 4.16 2.56 4.16 1.6 0 2.24-2.24 2.24-7.36 0-21.76 1.28-32.32 1.28-33.92 0-1.6-.64-2.24-3.2-2.24s-5.12-.32-11.2-1.6c-8-1.92-17.28-3.2-29.76-3.2-40.64 0-66.24 23.36-66.24 57.6 0 21.76 7.68 41.6 41.6 69.44l14.4 11.84c27.52 22.72 36.8 35.52 36.8 57.6 0 20.48-15.04 42.56-45.76 42.56-21.44 0-42.56-8.96-47.36-32.64-.96-4.48-.96-8.96-.96-11.84 0-2.56-.32-3.52-2.24-3.52-1.6 0-2.24 1.6-2.56 5.12-.32 5.12-1.6 17.92-1.6 33.92 0 8.64.32 9.92 4.8 12.16 13.12 6.4 27.84 8.64 42.88 8.64z"/><path fill="#FFF" d="M455.1 626.25c3.033 0 5.833.508 8.4 1.525s4.775 2.425 6.625 4.225c1.85 1.8 3.292 3.908 4.325 6.325 1.033 2.417 1.55 5.025 1.55 7.825s-.517 5.408-1.55 7.825-2.475 4.525-4.325 6.325c-1.85 1.8-4.058 3.208-6.625 4.225-2.567 1.017-5.367 1.525-8.4 1.525-3.067 0-5.875-.508-8.425-1.525-2.55-1.017-4.742-2.425-6.575-4.225-1.833-1.8-3.267-3.908-4.3-6.325-1.033-2.417-1.55-5.025-1.55-7.825s.517-5.408 1.55-7.825 2.467-4.525 4.3-6.325c1.833-1.8 4.025-3.208 6.575-4.225 2.55-1.017 5.358-1.525 8.425-1.525zm0 9.5c-1.433 0-2.792.258-4.075.775-1.283.517-2.408 1.242-3.375 2.175-.967.933-1.733 2.033-2.3 3.3-.567 1.267-.85 2.65-.85 4.15 0 1.5.283 2.883.85 4.15.567 1.267 1.333 2.367 2.3 3.3.967.933 2.092 1.658 3.375 2.175 1.283.517 2.642.775 4.075.775 1.433 0 2.792-.258 4.075-.775 1.283-.517 2.417-1.242 3.4-2.175.983-.933 1.758-2.033 2.325-3.3.567-1.267.85-2.65.85-4.15 0-1.5-.283-2.883-.85-4.15-.567-1.267-1.342-2.367-2.325-3.3-.983-.933-2.117-1.658-3.4-2.175-1.283-.517-2.642-.775-4.075-.775zM638 638.4c2.833 0 5.583.55 8.25 1.65l-3.05 5.9c-1.667-.867-3.3-1.3-4.9-1.3-.833 0-1.508.167-2.025.5-.517.333-.775.783-.775 1.35 0 .3.042.542.125.725.083.183.267.358.55.525.283.167.7.317 1.25.45s1.275.3 2.175.5c2.5.5 4.367 1.392 5.6 2.675 1.233 1.283 1.85 2.925 1.85 4.925 0 1.5-.3 2.85-.9 4.05-.6 1.2-1.433 2.208-2.5 3.025-1.067.817-2.35 1.45-3.85 1.9-1.5.45-3.15.675-4.95.675-3.467 0-6.883-.983-10.25-2.95l3.3-6.4c2.533 1.733 4.933 2.6 7.2 2.6.833 0 1.517-.183 2.05-.55.533-.367.8-.833.8-1.4 0-.333-.042-.608-.125-.825-.083-.217-.258-.417-.525-.6s-.658-.35-1.175-.5c-.517-.15-1.192-.308-2.025-.475-2.8-.567-4.758-1.408-5.875-2.525s-1.675-2.658-1.675-4.625c0-1.433.267-2.725.8-3.875s1.3-2.125 2.3-2.925c1-.8 2.208-1.417 3.625-1.85 1.417-.433 2.992-.65 4.725-.65zm-38.45 0c2.833 0 5.583.55 8.25 1.65l-3.05 5.9c-1.667-.867-3.3-1.3-4.9-1.3-.833 0-1.508.167-2.025.5-.517.333-.775.783-.775 1.35 0 .3.042.542.125.725.083.183.267.358.55.525.283.167.7.317 1.25.45s1.275.3 2.175.5c2.5.5 4.367 1.392 5.6 2.675 1.233 1.283 1.85 2.925 1.85 4.925 0 1.5-.3 2.85-.9 4.05-.6 1.2-1.433 2.208-2.5 3.025-1.067.817-2.35 1.45-3.85 1.9-1.5.45-3.15.675-4.95.675-3.467 0-6.883-.983-10.25-2.95l3.3-6.4c2.533 1.733 4.933 2.6 7.2 2.6.833 0 1.517-.183 2.05-.55.533-.367.8-.833.8-1.4 0-.333-.042-.608-.125-.825-.083-.217-.258-.417-.525-.6s-.658-.35-1.175-.5c-.517-.15-1.192-.308-2.025-.475-2.8-.567-4.758-1.408-5.875-2.525s-1.675-2.658-1.675-4.625c0-1.433.267-2.725.8-3.875s1.3-2.125 2.3-2.925c1-.8 2.208-1.417 3.625-1.85 1.417-.433 2.992-.65 4.725-.65zm-43.9 0c2.167 0 4.117.325 5.85.975 1.733.65 3.2 1.592 4.4 2.825 1.2 1.233 2.117 2.742 2.75 4.525.633 1.783.95 3.792.95 6.025v.95h-19.05c0 3.9 1.833 5.85 5.5 5.85 1.967 0 3.45-.8 4.45-2.4h8.75c-1.767 5.867-6.183 8.8-13.25 8.8-2.167 0-4.15-.325-5.95-.975-1.8-.65-3.342-1.575-4.625-2.775s-2.275-2.633-2.975-4.3c-.7-1.667-1.05-3.533-1.05-5.6 0-2.133.333-4.058 1-5.775.667-1.717 1.617-3.175 2.85-4.375 1.233-1.2 2.725-2.125 4.475-2.775 1.75-.65 3.725-.975 5.925-.975zm.25 5.85c-1.4 0-2.542.367-3.425 1.1-.883.733-1.442 1.767-1.675 3.1h10.35c-.3-1.267-.917-2.283-1.85-3.05-.933-.767-2.067-1.15-3.4-1.15zm120.6-5.7c3.2 0 5.85 1.117 7.95 3.35v-2.55h9.1V665h-9.1v-2.85c-1.933 2.433-4.55 3.65-7.85 3.65-1.867 0-3.583-.342-5.15-1.025-1.567-.683-2.933-1.642-4.1-2.875-1.167-1.233-2.075-2.683-2.725-4.35-.65-1.667-.975-3.483-.975-5.45 0-1.833.317-3.575.95-5.225.633-1.65 1.517-3.092 2.65-4.325s2.483-2.208 4.05-2.925c1.567-.717 3.3-1.075 5.2-1.075zm2.4 7.8c-.833 0-1.608.15-2.325.45-.717.3-1.333.717-1.85 1.25-.517.533-.925 1.142-1.225 1.825-.3.683-.45 1.425-.45 2.225 0 .833.15 1.608.45 2.325.3.717.708 1.342 1.225 1.875.517.533 1.133.95 1.85 1.25.717.3 1.492.45 2.325.45.8 0 1.558-.15 2.275-.45.717-.3 1.333-.717 1.85-1.25.517-.533.933-1.15 1.25-1.85.317-.7.475-1.45.475-2.25s-.158-1.558-.475-2.275c-.317-.717-.733-1.342-1.25-1.875-.517-.533-1.133-.95-1.85-1.25-.717-.3-1.475-.45-2.275-.45zM523.25 623.5V665h-9.1v-2.85c-1.933 2.433-4.55 3.65-7.85 3.65-1.867 0-3.583-.35-5.15-1.05-1.567-.7-2.933-1.667-4.1-2.9-1.167-1.233-2.075-2.683-2.725-4.35-.65-1.667-.975-3.467-.975-5.4 0-1.833.308-3.575.925-5.225.617-1.65 1.492-3.092 2.625-4.325s2.492-2.208 4.075-2.925c1.583-.717 3.325-1.075 5.225-1.075 3.2 0 5.85 1.117 7.95 3.35v-18.4h9.1zm-14.65 22.85c-.8 0-1.558.15-2.275.45-.717.3-1.333.717-1.85 1.25-.517.533-.933 1.142-1.25 1.825-.317.683-.475 1.425-.475 2.225 0 .833.15 1.608.45 2.325.3.717.708 1.342 1.225 1.875.517.533 1.133.95 1.85 1.25.717.3 1.492.45 2.325.45.8 0 1.558-.15 2.275-.45.717-.3 1.333-.717 1.85-1.25.517-.533.933-1.15 1.25-1.85.317-.7.475-1.45.475-2.25s-.158-1.558-.475-2.275c-.317-.717-.733-1.342-1.25-1.875-.517-.533-1.133-.95-1.85-1.25-.717-.3-1.475-.45-2.275-.45z"/></svg>